<svg width="63" height="63" viewBox="0 0 63 63" fill="none" xmlns="http://www.w3.org/2000/svg">
<circle cx="31.5" cy="31.5" r="31.5" fill="#89C29B"/>
<path d="M34.5 12C34.5 10.6193 33.3807 9.5 32 9.5C30.6193 9.5 29.5 10.6193 29.5 12H34.5ZM30.2322 52.7678C31.2085 53.7441 32.7915 53.7441 33.7678 52.7678L49.6777 36.8579C50.654 35.8816 50.654 34.2986 49.6777 33.3223C48.7014 32.346 47.1184 32.346 46.1421 33.3223L32 47.4645L17.8579 33.3223C16.8816 32.346 15.2986 32.346 14.3223 33.3223C13.346 34.2986 13.346 35.8816 14.3223 36.8579L30.2322 52.7678ZM29.5 12L29.5 51H34.5V12H29.5Z" fill="white"/>
</svg>
